<svg width="512" height="512" viewBox="0 0 512 512" xmlns="http://www.w3.org/2000/svg">
  <defs>
    <linearGradient id="bg" x1="0" y1="0" x2="0" y2="1">
      <stop offset="0" stop-color="#FFB48E"/><stop offset="1" stop-color="#FF8E6B"/>
    </linearGradient>
    <radialGradient id="halo" cx="0.5" cy="0.45" r="0.6">
      <stop offset="0" stop-color="#FFFFFF" stop-opacity="0.30"/>
      <stop offset="1" stop-color="#FFFFFF" stop-opacity="0"/>
    </radialGradient>
  </defs>

  <rect width="512" height="512" fill="url(#bg)"/>
  <circle cx="256" cy="246" r="200" fill="url(#halo)"/>

  <!-- cardigan -->
  <path d="M78 512 C78 432 156 398 256 398 C356 398 434 432 434 512 Z" fill="#3C8E6A"/>
  <path d="M214 402 L256 470 L298 402 Z" fill="#2E7D5B"/>
  <path d="M86 512 C94 470 122 446 152 432" fill="none" stroke="#5BA888" stroke-width="6" stroke-linecap="round" opacity="0.7"/>
  <path d="M426 512 C418 470 390 446 360 432" fill="none" stroke="#5BA888" stroke-width="6" stroke-linecap="round" opacity="0.7"/>

  <!-- neck -->
  <rect x="226" y="356" width="60" height="58" rx="26" fill="#F0BE92"/>

  <!-- hair (perm) base + curls behind face -->
  <ellipse cx="256" cy="226" rx="134" ry="140" fill="#E9E9EF"/>
  <circle cx="361.6" cy="312.2" r="27" fill="#E9E9EF"/><circle cx="380.2" cy="278.4" r="31" fill="#E9E9EF"/><circle cx="389.3" cy="240.6" r="35" fill="#E9E9EF"/><circle cx="388.0" cy="201.7" r="27" fill="#E9E9EF"/><circle cx="376.4" cy="164.6" r="31" fill="#E9E9EF"/><circle cx="355.6" cy="132.3" r="35" fill="#E9E9EF"/><circle cx="327.0" cy="107.3" r="27" fill="#E9E9EF"/><circle cx="292.9" cy="91.4" r="31" fill="#E9E9EF"/><circle cx="256.0" cy="86.0" r="35" fill="#E9E9EF"/><circle cx="219.1" cy="91.4" r="27" fill="#E9E9EF"/><circle cx="185.0" cy="107.3" r="31" fill="#E9E9EF"/><circle cx="156.4" cy="132.3" r="35" fill="#E9E9EF"/><circle cx="135.6" cy="164.6" r="27" fill="#E9E9EF"/><circle cx="124.0" cy="201.7" r="31" fill="#E9E9EF"/><circle cx="122.7" cy="240.6" r="35" fill="#E9E9EF"/><circle cx="131.8" cy="278.4" r="27" fill="#E9E9EF"/><circle cx="150.4" cy="312.2" r="31" fill="#E9E9EF"/><circle cx="353.7" cy="263.6" r="22" fill="#E9E9EF"/><circle cx="359.9" cy="231.9" r="22" fill="#E9E9EF"/><circle cx="357.0" cy="199.7" r="22" fill="#E9E9EF"/><circle cx="345.4" cy="169.7" r="22" fill="#E9E9EF"/><circle cx="326.0" cy="144.7" r="22" fill="#E9E9EF"/><circle cx="300.6" cy="126.6" r="22" fill="#E9E9EF"/><circle cx="271.3" cy="117.2" r="22" fill="#E9E9EF"/><circle cx="240.7" cy="117.2" r="22" fill="#E9E9EF"/><circle cx="211.4" cy="126.6" r="22" fill="#E9E9EF"/><circle cx="186.0" cy="144.7" r="22" fill="#E9E9EF"/><circle cx="166.6" cy="169.7" r="22" fill="#E9E9EF"/><circle cx="155.0" cy="199.7" r="22" fill="#E9E9EF"/><circle cx="152.1" cy="231.9" r="22" fill="#E9E9EF"/><circle cx="158.3" cy="263.6" r="22" fill="#E9E9EF"/>
  <circle cx="361.7" cy="290.0" r="11" fill="none" stroke="#CFCFD9" stroke-width="4"/><circle cx="375.5" cy="252.0" r="11" fill="none" stroke="#CFCFD9" stroke-width="4"/><circle cx="377.2" cy="211.4" r="11" fill="none" stroke="#CFCFD9" stroke-width="4"/><circle cx="366.7" cy="172.2" r="11" fill="none" stroke="#CFCFD9" stroke-width="4"/><circle cx="345.0" cy="138.5" r="11" fill="none" stroke="#CFCFD9" stroke-width="4"/><circle cx="314.3" cy="113.6" r="11" fill="none" stroke="#CFCFD9" stroke-width="4"/><circle cx="277.8" cy="100.1" r="11" fill="none" stroke="#CFCFD9" stroke-width="4"/><circle cx="239.0" cy="99.2" r="11" fill="none" stroke="#CFCFD9" stroke-width="4"/><circle cx="202.0" cy="111.2" r="11" fill="none" stroke="#CFCFD9" stroke-width="4"/><circle cx="170.4" cy="134.8" r="11" fill="none" stroke="#CFCFD9" stroke-width="4"/><circle cx="147.4" cy="167.6" r="11" fill="none" stroke="#CFCFD9" stroke-width="4"/><circle cx="135.5" cy="206.3" r="11" fill="none" stroke="#CFCFD9" stroke-width="4"/><circle cx="135.6" cy="247.0" r="11" fill="none" stroke="#CFCFD9" stroke-width="4"/><circle cx="148.0" cy="285.5" r="11" fill="none" stroke="#CFCFD9" stroke-width="4"/><circle cx="171.3" cy="318.1" r="11" fill="none" stroke="#CFCFD9" stroke-width="4"/>

  <!-- ears + pearl earrings -->
  <ellipse cx="142" cy="270" rx="19" ry="25" fill="#F2C49C"/>
  <ellipse cx="370" cy="270" rx="19" ry="25" fill="#F2C49C"/>
  <circle cx="142" cy="298" r="7" fill="#FCFCFE" stroke="#E2D9C9" stroke-width="2"/>
  <circle cx="370" cy="298" r="7" fill="#FCFCFE" stroke="#E2D9C9" stroke-width="2"/>

  <!-- face -->
  <ellipse cx="256" cy="264" rx="112" ry="120" fill="#F6CCA4"/>

  <!-- eyebrows (silver) -->
  <path d="M184 222 q26 -11 50 -1" fill="none" stroke="#C2C2CC" stroke-width="6" stroke-linecap="round"/>
  <path d="M278 221 q26 -10 50 1" fill="none" stroke="#C2C2CC" stroke-width="6" stroke-linecap="round"/>

  <!-- blush -->
  <ellipse cx="184" cy="308" rx="24" ry="14" fill="#F0978B" opacity="0.45"/>
  <ellipse cx="328" cy="308" rx="24" ry="14" fill="#F0978B" opacity="0.45"/>

  <!-- glasses -->
  <circle cx="208" cy="262" r="38" fill="#FFFFFF" opacity="0.22"/>
  <circle cx="304" cy="262" r="38" fill="#FFFFFF" opacity="0.22"/>
  <circle cx="208" cy="262" r="38" fill="none" stroke="#C99A3D" stroke-width="8"/>
  <circle cx="304" cy="262" r="38" fill="none" stroke="#C99A3D" stroke-width="8"/>
  <path d="M246 260 q10 -10 20 0" fill="none" stroke="#C99A3D" stroke-width="8" stroke-linecap="round"/>
  <path d="M172 256 L150 260" fill="none" stroke="#C99A3D" stroke-width="8" stroke-linecap="round"/>
  <path d="M340 256 L362 260" fill="none" stroke="#C99A3D" stroke-width="8" stroke-linecap="round"/>

  <!-- smiling eyes -->
  <path d="M192 266 q16 -19 32 0" fill="none" stroke="#5A4632" stroke-width="7" stroke-linecap="round"/>
  <path d="M288 266 q16 -19 32 0" fill="none" stroke="#5A4632" stroke-width="7" stroke-linecap="round"/>

  <!-- nose -->
  <path d="M250 306 q7 6 14 2" fill="none" stroke="#DE9C76" stroke-width="5" stroke-linecap="round"/>

  <!-- smile -->
  <path d="M222 330 q34 28 68 0" fill="none" stroke="#C15D46" stroke-width="8" stroke-linecap="round"/>

  <!-- heart pin -->
  <g transform="translate(212,452)">
    <path d="M0 7 C0 7 -15 -4 -15 -15 C-15 -23 -6 -25 0 -16 C6 -25 15 -23 15 -15 C15 -4 0 7 0 7 Z" fill="#FFF2E6" stroke="#FF8088" stroke-width="3"/>
  </g>
</svg>